.
 
http://www.scenetime.com    -   SceneTime [ We been having it ] !!!


How come you press harder on a remote control when you know the battery is dead? so you better seed to get speed ;)

        Seed back for speed


...................................NFO:.................................................
                                                                             
 :::  :::  :::::  :::   :::   :::::    ::: :::     :::    :::::    
 :::  :::  ::::::::::  :::   :::::::    ::::: :::     :::   :::::::   
 :::  ::::::::::::::::::::::::::: ::: ::: :::     :::  :::::::::  
 :::  ::: :::::::::::: :::::: ::: ::: :::     :::  ::::::  
 :::  ::: ::: :::::::::: :::  ::: ::: :::  :::     :::  ::: :::  
 :::  ::: ::: :::::::::  :::  ::: ::: :::  :::  :  :::  ::: :::  
 :::  ::: ::: :::::::::: :::  ::: ::: :::  ::: ::: :::  ::: :::  
 :::  ::: ::: ::::::::::::  ::: ::: :::  ::: : : :::  ::: :::  
 :::..::: ::: :::::: ::::::  ::: ::: :::  ::::: :::::  ::: :::  
 ::::::::: :::::: ::::::  ::: ::::: ::::: :::::  ::: :::  
  ::::  ::: ::::::  ::::::  ::: :::  ::::   ::::  ::: :::  

                                                                              
                  NOTES                    
                                                                              
                  NOTES                    
                                                                              
                                                                              
                                                                              
 Encoded By .......:UnKnOwN                                                   
 Runtime ..........:1:42                                                      
 IMDb URL .........:http://www.imdb.com/title/tt1632708/                      
 Language .........:English                                                   
 File Size ........:941mb                                                     
 Release Date ......... 2011                                                  
 Source       ......... Russian/IMAGINE                                       
 File Type    ......... Single AVI                                            
 PS3 Compatible ....... Who cares                                             
 Genre        ......... Comedy/Romance                                        
                                                                              
                                                                              
 Video                                                                        
  ID                               : 0                                        
  Format                           : MPEG-4 Visual                            
  Format profile                   : Advanced Simple@L5                        
  Format settings, BVOP            : Yes                                       
  Format settings, QPel            : No                                        
  Format settings, GMC             : No warppoints                             
  Format settings, Matrix          : Custom                                    
  Codec ID                         : XVID                                      
  Codec ID/Hint                    : XviD                                      
  Duration                         : 1h 42mn                                   
  Bit rate                         : 1 197 Kbps                                
  Width                            : 680pixels                                 
  Height                           : 272 pixels                                
  Display aspect ratio             : 2.500                                     
  Frame rate                       : 25.000 fps                                
  Color space                      : YUV                                       
  Chroma subsampling               : 4:2:0                                     
  Bit depth                        : 8 bits                                    
  Scan type                        : Progressive                               
  Bits/(Pixel*Frame)               : 0.234                                     
  Stream size                      : 892 MiB (86%)                             
  Writing library                  : XviD 1.2.1 (UTC 2008-12-04)              
                                                                              
                                                                              
 Audio                                                                         
 ID                               : 1                                          
 Format                           : MPEG Audio                                 
 Format/Info                      : Version 1                                  
 Mode extension                   : Layer 3                                    
 Codec ID                         : Joint stereo                               
 Duration                         : 1h 42mn                                    
 Bit rate mode                    : Constant                                   
 Bit rate                         : 128 Kbps                                   
 Channel(s)                       : 2 channels                                 
 Channel positions                : 2 channels              
 Sampling rate                    : 44.1 KHz                                   
 Bit depth                        : 16 bits                                    
 Stream size                      : 302 MiB                                    
 Alignment                        : Aligned on interleaves                     
 Interleave, duration             : 42 ms (1.00 video frame)                   
 Interleave, preload duration     : 512 ms                                    
                                                                              
                                                                              
                                                                              
                                                                               
                                                                              
                                                                              
                                                                              
                                 SYSPNOSIS                                    
 While trying to avoid the clichs of Hollywood romantic comedies, Dylan and  
 Jamie soon discover however that adding the act of sex to their friendship . 
                       does lead to complications                             
                                                                              
                                RELEASE INFO                                  
                                                                              
                                                                              
  14 cuts for audio.Cam had a lot of issues adjusted colors,denoiser,smoother 
  cm rgb bla bla,Audio slighly cleaned and muxed watchable copy if you        
  can't wait,sample included.                                                 
                                                                              
                                                                              

                 
              
                                                                              
                                 LOOKING FOR                                  
                                                                              
                 That geek i saw at the star wars convention                  
                           with the kronic holla(:                            
                                                                              
                                                                              
                                                                              

               GREETZ & RESPECT               
  
                          NOBODY YET WILL LET YOU KNOW                        
                                                                              
                          MORE GOODIES COMING REAL SOON